<svg xmlns="http://www.w3.org/2000/svg" width="376" height="450" version="1.2">
  <path d="M348.1 162.5C366.6 192.4 376 227 376 262c0 103.7-84.3 188-188 188S0 365.2 0 261.5s84.3-188 188-188h.5l-25.6-25.6C152 37 152 19.1 162.9 8.2c10.9-10.9 28.9-10.9 39.8 0L276.6 82c10.9 10.9 10.9 28.9 0 39.8l-73.4 73.4c-5.7 5.2-12.8 8.1-19.9 8.1-7.1 0-14.2-2.4-19.9-8.1-10.9-10.9-10.9-28.9 0-39.8l25.6-25.5h-1c-72.9 0-131.6 58.7-131.6 131.6 0 73 59.2 132.2 132.1 132.2 72.9 0 132.1-59.2 132.1-132.2 0-24.6-7.1-48.7-19.9-69.6-8-12.8-4.2-30.3 9-38.3 12.8-8.1 30.3-4.3 38.4 9z" style="fill:#000"/>
</svg>
